<?xml version="1.0" encoding="utf-8"?>
<!-- Generator: Adobe Illustrator 21.0.0, SVG Export Plug-In . SVG Version: 6.00 Build 0)  -->
<svg version="1.1" id="Слой_1" xmlns="http://www.w3.org/2000/svg" xmlns:xlink="http://www.w3.org/1999/xlink" x="0px" y="0px"
	 viewBox="0 0 160.1 57.9" style="enable-background:new 0 0 160.1 57.9;" xml:space="preserve">
<style type="text/css">
	.st0{display:none;fill:#46B7B7;}
	.st1{fill:#FFFFFF;}
</style>
<rect x="-7.8" y="-4.7" class="st0" width="175" height="76.8"/>
<path class="st1" d="M47.4,14.7C47.4,14.7,47.4,14.7,47.4,14.7l-4.3,23.9l-7.7-19.8l-7.8,2.6l-6.4,34.4c-7.7,0-13.1-2-16.7-4.7
	c-2.9-4.8-0.5-4-1.5-9.7C1.9,35.7-3.4,30,3.4,19.6c2.3-3.5,5.7-5.5,9.4-6.6c0,0-0.1,0-0.1,0L8.9,43.2l6.9,1.3l3.5-32.7
	c4.9-0.4,9.3,0.1,10.5-0.1c2.8-0.5,6.3-1.3,17.3,2.9C47.2,14.6,47.3,14.6,47.4,14.7z"/>
<g>
	<path class="st1" d="M88.9,48.9c-0.2-0.4-0.3-0.9-0.4-1.4c-1,1.1-2.4,1.7-4,1.7c-1.6,0-2.8-0.4-3.9-1.3c-1-0.9-1.5-2-1.5-3.4
		c0-1.7,0.6-3,1.9-3.9c1.2-0.9,3-1.4,5.4-1.4h1.9v-0.9c0-0.7-0.2-1.3-0.6-1.8c-0.4-0.4-1-0.7-1.8-0.7c-0.7,0-1.3,0.2-1.7,0.5
		c-0.4,0.3-0.6,0.8-0.6,1.4h-4.2c0-0.9,0.3-1.8,0.8-2.5s1.4-1.4,2.4-1.8c1-0.4,2.2-0.7,3.5-0.7c2,0,3.5,0.5,4.7,1.5
		c1.1,1,1.7,2.4,1.7,4.1v6.9c0,1.5,0.2,2.6,0.6,3.4v0.2H88.9z M85.4,45.9c0.6,0,1.2-0.1,1.7-0.4c0.5-0.3,0.9-0.7,1.2-1.1v-2.7h-1.6
		c-2.1,0-3.2,0.7-3.4,2.2l0,0.2c0,0.5,0.2,1,0.6,1.3S84.8,45.9,85.4,45.9z"/>
	<path class="st1" d="M102.4,45.8c0.8,0,1.4-0.2,1.9-0.6s0.7-1,0.8-1.7h4c0,1.1-0.3,2.1-0.9,3c-0.6,0.9-1.4,1.6-2.4,2.1
		c-1,0.5-2.1,0.7-3.3,0.7c-2.3,0-4.1-0.7-5.4-2.2s-2-3.4-2-6v-0.3c0-2.4,0.6-4.4,1.9-5.8s3.1-2.2,5.3-2.2c2,0,3.6,0.6,4.8,1.7
		c1.2,1.1,1.8,2.6,1.8,4.5h-4c0-0.8-0.3-1.5-0.8-2s-1.1-0.8-1.9-0.8c-1,0-1.7,0.4-2.2,1.1c-0.5,0.7-0.8,1.9-0.8,3.5v0.4
		c0,1.6,0.2,2.8,0.7,3.5C100.6,45.4,101.4,45.8,102.4,45.8z"/>
	<path class="st1" d="M116.5,29.1V33h2.7v3.1h-2.7V44c0,0.6,0.1,1,0.3,1.3s0.7,0.4,1.3,0.4c0.5,0,0.9,0,1.2-0.1v3.2
		c-0.8,0.3-1.7,0.4-2.6,0.4c-3,0-4.5-1.5-4.5-4.5v-8.5H110V33h2.3v-3.9H116.5z"/>
	<path class="st1" d="M121.6,28.9c0-0.6,0.2-1.2,0.6-1.6c0.4-0.4,1-0.6,1.7-0.6c0.7,0,1.3,0.2,1.7,0.6s0.6,0.9,0.6,1.6
		c0,0.6-0.2,1.2-0.7,1.6c-0.4,0.4-1,0.6-1.7,0.6s-1.3-0.2-1.7-0.6S121.6,29.6,121.6,28.9z M126,48.9h-4.2V33h4.2V48.9z"/>
	<path class="st1" d="M128.9,40.8c0-1.6,0.3-3,0.9-4.2s1.5-2.2,2.6-2.9c1.1-0.7,2.5-1,4-1c2.1,0,3.9,0.7,5.2,2
		c1.4,1.3,2.1,3.1,2.3,5.3l0,1.1c0,2.4-0.7,4.4-2,5.9c-1.4,1.5-3.2,2.2-5.5,2.2s-4.1-0.7-5.5-2.2c-1.4-1.5-2-3.5-2-6V40.8z
		 M133.1,41.1c0,1.5,0.3,2.7,0.8,3.5s1.4,1.2,2.4,1.2c1,0,1.8-0.4,2.4-1.2c0.6-0.8,0.9-2,0.9-3.8c0-1.5-0.3-2.6-0.9-3.4
		s-1.4-1.2-2.4-1.2c-1,0-1.8,0.4-2.4,1.2C133.4,38.2,133.1,39.4,133.1,41.1z"/>
	<path class="st1" d="M150.4,33l0.1,1.8c1.1-1.4,2.7-2.1,4.6-2.1c1.7,0,2.9,0.5,3.8,1.5s1.2,2.5,1.3,4.4v10.2h-4.2V38.7
		c0-0.9-0.2-1.5-0.6-2s-1-0.6-1.9-0.6c-1.2,0-2.1,0.5-2.7,1.5v11.2h-4.2V33H150.4z"/>
</g>
<path class="st1" d="M73.1,31.9c-0.1,3.5-0.7,6.6-0.8,8c-0.3,3.8,0.6,12-12.7,16.7c-3.2,0.8-6,1.2-8.6,1.3c-1.5,0.1-2.9,0.1-4.2,0
	c-8.1-0.4-13.4-3.1-18.9-2.5c0.5-3.7,5-26,5-26l6.5,19.6l7.9-3.9l5.1-28.7c3.9,0.9,2.5-1.3,11.9,0.5c5.1,1,7.4,4.5,8.3,8.6
	c-0.3-0.1-5-1.9-9-1.6c-4.2,0.3-8.3,2.5-8.6,6.2c-0.5,7.4,4.6,7.6,7.8,9.3c3.2,1.7,1.9,5,1.9,5s-2.3,4.7-11-0.5l-2.5,5
	c0,0,12.8,5.3,16.4,0c0,0,4.9-4.5,1.9-9.6S66.4,37,62,33.1c-2.4-2.4,0.5-5.4,3.2-5.3C67.4,27.8,71.6,30.8,73.1,31.9z"/>
<circle class="st1" cx="16.2" cy="3.7" r="3.7"/>
</svg>
